<?xml version="1.0" standalone="no"?>
<!DOCTYPE svg PUBLIC "-//W3C//DTD SVG 20010904//EN"
 "http://www.w3.org/TR/2001/REC-SVG-20010904/DTD/svg10.dtd">
<svg version="1.0" xmlns="http://www.w3.org/2000/svg"
 width="16.000000pt" height="16.000000pt" viewBox="0 0 16.000000 16.000000"
 preserveAspectRatio="xMidYMid meet">
<metadata>
Created by potrace 1.11, written by Peter Selinger 2001-2013
</metadata>
<g transform="translate(0.000000,16.000000) scale(0.002952,-0.002952)"
fill="#000000" stroke="none">
<path d="M797 5369 c-221 -21 -364 -85 -502 -224 -143 -143 -202 -278 -225
-520 -14 -151 -14 -3659 0 -3810 23 -242 82 -377 225 -520 143 -143 278 -202
520 -225 151 -14 3659 -14 3810 0 242 23 377 82 520 225 143 143 202 278 225
520 14 151 14 3659 0 3810 -23 242 -82 377 -225 520 -141 142 -275 200 -514
224 -125 13 -3701 13 -3834 0z m3178 -563 c-13 -43 -28 -83 -33 -89 -13 -17
-73 -159 -69 -164 2 -2 12 16 23 39 18 42 73 128 61 98 -3 -8 -26 -64 -51
-124 -25 -60 -44 -111 -42 -113 3 -4 77 159 114 251 11 29 17 35 23 23 6 -9 3
-28 -6 -49 -8 -18 -15 -28 -15 -23 -1 6 -11 -10 -24 -35 -17 -32 -21 -47 -12
-52 15 -10 28 -10 22 0 -2 4 4 14 16 21 11 7 18 9 15 4 -14 -24 -87 -204 -87
-215 0 -10 2 -10 9 0 6 10 10 9 14 -7 3 -14 1 -19 -6 -14 -6 4 -8 0 -4 -9 3
-9 -14 -55 -39 -104 -42 -84 -43 -88 -26 -108 9 -10 12 -16 6 -13 -8 4 -18 -9
-29 -36 -9 -23 -22 -45 -28 -49 -6 -4 -11 -17 -12 -30 -1 -33 -36 -119 -46
-112 -5 3 -9 0 -9 -7 0 -7 -2 -10 -5 -7 -9 8 6 38 16 32 5 -3 6 3 2 12 -5 12
-15 0 -39 -47 -23 -46 -29 -68 -22 -77 8 -9 7 -11 -6 -6 -12 5 -15 2 -10 -10
3 -9 10 -14 14 -11 5 3 12 0 16 -6 5 -8 3 -9 -6 -4 -10 6 -12 4 -7 -8 8 -22
-2 -49 -16 -40 -6 4 -8 0 -4 -11 4 -11 3 -15 -4 -10 -7 4 -9 0 -5 -12 3 -11 1
-26 -5 -34 -9 -13 -10 -13 -6 0 2 8 0 25 -4 37 -10 27 -1 62 11 43 5 -9 10 -6
15 10 4 13 2 27 -5 34 -8 8 -9 6 -4 -8 5 -13 4 -17 -4 -12 -7 4 -26 -26 -51
-80 -50 -105 -53 -123 -6 -34 42 81 45 65 5 -25 -17 -37 -27 -71 -24 -76 3 -5
1 -9 -5 -9 -6 0 -7 -7 -4 -17 4 -11 3 -14 -5 -9 -8 5 -10 2 -6 -8 3 -9 1 -16
-6 -16 -6 0 -8 -4 -5 -10 3 -5 2 -10 -4 -10 -6 0 -7 -7 -4 -17 4 -11 3 -14 -5
-9 -8 5 -10 2 -6 -8 3 -9 1 -16 -5 -16 -6 0 -8 -7 -4 -16 5 -14 8 -12 19 7 16
30 18 19 3 -15 -7 -14 -15 -24 -18 -22 -3 2 -7 -6 -7 -17 -1 -12 -31 -94 -68
-181 -36 -87 -65 -161 -63 -163 2 -2 21 37 42 87 22 49 41 88 43 86 2 -3 -43
-115 -99 -250 -57 -135 -106 -241 -109 -236 -7 11 -29 -36 -115 -250 -26 -63
-89 -221 -142 -350 -52 -129 -117 -284 -145 -345 -75 -165 -233 -533 -290
-675 -82 -204 -229 -550 -237 -554 -4 -3 -49 70 -101 161 -52 91 -118 200
-145 243 -28 43 -95 162 -150 264 -55 103 -155 280 -223 394 -249 418 -463
815 -507 940 -40 111 -40 144 -2 180 37 34 70 37 129 10 149 -69 274 -229 602
-771 83 -139 169 -283 191 -322 43 -77 143 -228 155 -233 7 -3 12 8 46 101 9
27 26 60 38 74 23 30 53 97 292 651 96 222 180 410 188 417 13 14 21 33 96
228 23 59 47 113 54 120 21 21 114 201 110 213 -7 17 52 149 65 146 7 -1 10 2
6 8 -3 5 -2 10 3 10 5 0 8 13 7 29 -1 17 2 29 7 28 5 -1 48 88 95 198 46 110
89 207 94 215 5 8 21 42 36 75 15 33 44 93 65 133 22 40 36 78 32 84 -5 7 -3
8 6 3 10 -6 12 -4 7 9 -4 9 -3 14 2 11 5 -3 13 4 16 16 5 15 10 18 15 9 5 -8
9 -7 13 5 4 10 3 14 -4 9 -17 -10 -3 28 50 141 71 152 82 173 75 145 -4 -14
-7 -31 -7 -37 0 -7 -4 -13 -9 -13 -4 0 -8 -7 -8 -14 0 -8 -15 -49 -34 -90 -41
-89 -33 -103 9 -16 15 32 32 57 36 55 9 -6 21 24 13 36 -3 5 -1 9 5 9 6 0 7 7
4 17 -4 10 -2 14 4 10 13 -8 26 20 16 35 -3 6 -1 8 4 5 7 -4 34 48 69 128 33
74 62 135 66 135 4 0 0 -16 -8 -36 -28 -68 -8 -43 30 36 21 44 42 77 47 74 5
-3 6 2 3 10 -3 8 2 27 11 43 9 15 14 20 11 11 -16 -49 -15 -50 5 -11 13 24 24
41 25 40 2 -2 -8 -38 -21 -81z m66 27 c-12 -20 -14 -14 -5 12 4 9 9 14 11 11
3 -2 0 -13 -6 -23z m-25 -60 c-8 -15 -15 -25 -16 -21 0 12 23 58 27 54 3 -2
-2 -17 -11 -33z m-41 -292 c-21 -43 -29 -39 -8 4 9 19 18 33 21 31 2 -2 -4
-18 -13 -35z m-344 -898 c-12 -20 -14 -14 -5 12 4 9 9 14 11 11 3 -2 0 -13 -6
-23z m-30 -70 c-12 -20 -14 -14 -5 12 4 9 9 14 11 11 3 -2 0 -13 -6 -23z m-25
-60 c-8 -15 -15 -25 -16 -21 0 12 23 58 27 54 3 -2 -2 -17 -11 -33z"/>
<path d="M3877 4398 c-13 -31 -14 -45 -6 -53 8 -7 10 -6 7 5 -3 8 2 30 9 49 8
18 12 35 10 37 -2 2 -11 -15 -20 -38z"/>
<path d="M3605 4210 c3 -5 8 -10 11 -10 2 0 4 5 4 10 0 6 -5 10 -11 10 -5 0
-7 -4 -4 -10z"/>
<path d="M3142 3238 c-10 -30 -10 -31 3 -14 13 17 21 46 12 46 -1 0 -8 -15
-15 -32z"/>
<path d="M3446 3235 c-9 -26 -7 -32 5 -12 6 10 9 21 6 23 -2 3 -7 -2 -11 -11z"/>
<path d="M3426 3185 c-9 -26 -7 -32 5 -12 6 10 9 21 6 23 -2 3 -7 -2 -11 -11z"/>
<path d="M3406 3135 c-9 -26 -7 -32 5 -12 6 10 9 21 6 23 -2 3 -7 -2 -11 -11z"/>
<path d="M3321 2888 c-17 -39 -30 -73 -27 -75 2 -2 16 26 31 61 15 36 32 63
36 60 5 -3 6 2 3 10 -3 9 -7 16 -9 16 -1 0 -16 -32 -34 -72z"/>
<path d="M3021 2214 c-12 -31 -20 -59 -17 -61 2 -2 14 21 25 53 12 31 20 58
18 61 -2 2 -14 -22 -26 -53z"/>
</g>
</svg>
